<svg xmlns="http://www.w3.org/2000/svg" xmlns:xlink="http://www.w3.org/1999/xlink" viewBox="0 0 352.29 204.89"><defs><style>.cls-1{fill:url(#linear-gradient);}.cls-2{fill:url(#linear-gradient-2);}.cls-3{fill:url(#linear-gradient-3);}.cls-4{fill:url(#linear-gradient-4);}.cls-5{fill:url(#linear-gradient-5);}.cls-6{fill:url(#linear-gradient-6);}.cls-7{fill:url(#linear-gradient-7);}.cls-8{fill:#231f20;}.cls-9{fill:url(#linear-gradient-8);}.cls-10{fill:#ed1c24;}</style><linearGradient id="linear-gradient" x1="-4.3" y1="79.14" x2="318.92" y2="39.88" gradientUnits="userSpaceOnUse"><stop offset="0" stop-color="#fbb040"/><stop offset="0.68" stop-color="#ed1c24"/><stop offset="1" stop-color="#be1e2d"/></linearGradient><linearGradient id="linear-gradient-2" x1="-6.77" y1="58.87" x2="316.45" y2="19.61" xlink:href="#linear-gradient"/><linearGradient id="linear-gradient-3" x1="-7.29" y1="54.52" x2="315.93" y2="15.26" xlink:href="#linear-gradient"/><linearGradient id="linear-gradient-4" x1="-0.51" y1="110.34" x2="322.71" y2="71.08" xlink:href="#linear-gradient"/><linearGradient id="linear-gradient-5" x1="-5.92" y1="65.81" x2="317.3" y2="26.56" xlink:href="#linear-gradient"/><linearGradient id="linear-gradient-6" x1="-57.75" y1="61.03" x2="348.68" y2="61.03" gradientUnits="userSpaceOnUse"><stop offset="0" stop-color="#fff"/><stop offset="0.83"/></linearGradient><linearGradient id="linear-gradient-7" x1="-39.77" y1="87.7" x2="226.83" y2="87.7" gradientUnits="userSpaceOnUse"><stop offset="0.16" stop-color="#fff"/><stop offset="0.7"/></linearGradient><linearGradient id="linear-gradient-8" x1="13.63" y1="92.79" x2="315.22" y2="56.17" xlink:href="#linear-gradient"/></defs><g id="Layer_2" data-name="Layer 2"><g id="logo"><path class="cls-1" d="M45.77,87.41A147.56,147.56,0,0,1,73.49,66.9L66,56.25A149.26,149.26,0,0,0,38,82.66Z"/><path class="cls-2" d="M76.49,49.17,84.82,61a166,166,0,0,1,34.52-11.81l-2.76-18.53A185.56,185.56,0,0,0,76.49,49.17Z"/><path class="cls-3" d="M129.49,26.91l2.95,19.86A177.15,177.15,0,0,1,157.88,45q6.94,0,13.73.53l8.76-25A211.57,211.57,0,0,0,129.49,26.91Z"/><path class="cls-4" d="M19.67,121.9A124.33,124.33,0,0,1,37.35,96.11L30.91,92.2a117.88,117.88,0,0,0-14.7,30.43Z"/><path class="cls-5" d="M194.17,20.83,185,47a168.52,168.52,0,0,1,40.22,11.4l26.11-26.21A206.68,206.68,0,0,0,194.17,20.83Z"/><path class="cls-6" d="M180.8,6.82c57,0,117.07,27.59,152.84,71.42l11.62-1.6C309.63,32.3,245.34,0,185,0,97.37,0,23.8,51.9,3.19,122.06,26.18,55.39,97,6.82,180.8,6.82Z"/><path class="cls-7" d="M160.75,59.31a151.44,151.44,0,0,1,35.59,4.22c.67-.38,1.35-.74,2-1.09a151.08,151.08,0,0,0-43.65-6.39c-47.3,0-89.25,21.67-115.44,55.09h0l-.33.46q-2.94,3.78-5.6,7.75c7.45-1.28,16.1-2.58,26.11-3.85l-12.81-2.77C72.9,80.26,114.24,59.31,160.75,59.31Z"/><polygon class="cls-8" points="165.31 89.45 288.94 1.74 288.94 1.74 179.04 113.45 165.31 89.45"/><path class="cls-8" d="M179,113.45l17.73-18a25,25,0,1,0,.76,10Z"/><path class="cls-9" d="M322.43,79.77c-18.57-18.14-42.06-34.55-58.63-42.63L237,64a174.17,174.17,0,0,1,35.47,22.6Z"/><path class="cls-8" d="M29.72,204.89V202.6L51,189.14H29.72v-2.66H57.36v2.28L36.69,202.28H57.36v2.61Z"/><path class="cls-8" d="M67.35,204.89c-4.69,0-6.87-2-6.87-6v-8.26c0-2.69,1.41-4.16,5.23-4.16H84.57c3.82,0,5.16,1.47,5.16,4.16v2.47c0,2.69-1.34,4.16-5.16,4.16h-20v1.31c0,2.17,1.14,3.29,3.65,3.29h21v3ZM85.71,191.4c0-1.41-.7-2.18-2.58-2.18h-16c-1.88,0-2.61.77-2.61,2.18v3.32H83.13c1.88,0,2.58-.79,2.58-2.21Z"/><path class="cls-8" d="M119.43,204.89a1.22,1.22,0,0,1-.57-1.2v-3.4c0-1.58-1.28-2.17-3.15-2.17H97.51v6.77H93.46V186.48h23.92c3.79,0,5.16,1.47,5.16,4.16v2.28c0,3.13-2.11,3.62-3.48,3.75,1.51.11,3.82.71,3.82,3.62v3.4a1.27,1.27,0,0,0,.57,1.2Zm-.91-13.49c0-1.41-.7-2.18-2.58-2.18H97.51v6.37h18.1c1.74,0,2.91-.52,2.91-2.15Z"/><path class="cls-8" d="M132.73,204.89c-4.69,0-6.87-2-6.87-6v-6.44c0-4,2.18-6,6.87-6h15.55c4.69,0,6.84,2,6.84,6v6.44c0,4-2.15,6-6.84,6Zm18.33-12.1c0-2.21-1.14-3.29-3.62-3.29H133.57c-2.51,0-3.65,1.08-3.65,3.29v5.79c0,2.17,1.14,3.29,3.65,3.29h13.87c2.48,0,3.62-1.12,3.62-3.29Z"/><path class="cls-8" d="M182.06,204.89V189.5H169.9v-3h28.38v3h-12.2v15.39Z"/><path class="cls-8" d="M207.57,204.89c-4.69,0-6.87-2-6.87-6v-6.44c0-4,2.18-6,6.87-6h15.54c4.7,0,6.84,2,6.84,6v6.44c0,4-2.14,6-6.84,6Zm18.33-12.1c0-2.21-1.14-3.29-3.62-3.29H208.4c-2.51,0-3.65,1.08-3.65,3.29v5.79c0,2.17,1.14,3.29,3.65,3.29h13.88c2.48,0,3.62-1.12,3.62-3.29Z"/><path class="cls-8" d="M251.47,204.89V192c0-1.6-1-2.47-3-2.47H244.9v-3h4.39c4.22,0,6.2,1.77,6.2,5.19v13.22Z"/><path class="cls-8" d="M265.94,204.89c-4.69,0-6.86-2-6.86-6v-6.44c0-4,2.17-6,6.86-6h14.45c4.65,0,6.8,2,6.8,6v6.44c0,4-2.15,6-6.8,6Zm17.23-12.1c0-2.21-1.17-3.29-3.62-3.29H266.78c-2.51,0-3.65,1.08-3.65,3.29v5.79c0,2.17,1.14,3.29,3.65,3.29h12.77c2.45,0,3.62-1.12,3.62-3.29Z"/><path class="cls-8" d="M297.38,204.89c-4.69,0-6.87-2-6.87-6v-6.44c0-4,2.18-6,6.87-6h14.44c4.66,0,6.8,2,6.8,6v6.44c0,4-2.14,6-6.8,6Zm17.22-12.1c0-2.21-1.17-3.29-3.62-3.29H298.22c-2.52,0-3.66,1.08-3.66,3.29v5.79c0,2.17,1.14,3.29,3.66,3.29H311c2.45,0,3.62-1.12,3.62-3.29Z"/><path class="cls-10" d="M50.47,172.39,54.1,157H15L11.4,172.39H0l8.64-36.76H20l-3.27,14.06H55.84l3.27-14.06h11.4l-8.64,36.76Z"/><path class="cls-10" d="M84.31,172.39c-8.56,0-12.63-2.82-12.63-8.41a16.07,16.07,0,0,1,.43-3.53l5.81-24.82H89.47l-5.59,24a10.5,10.5,0,0,0-.36,2.28c0,2.6,1.88,2.66,5.15,2.66h34l6.75-28.89h11.25L132,172.39Z"/><path class="cls-10" d="M191.58,172.39l5.66-23.95a8,8,0,0,0,.29-2.11c0-2.56-1.89-2.88-5.16-2.88H158l-6.83,28.94H139.8l8.64-36.76h48.14c8.65,0,12.71,2.88,12.71,8.47a15.22,15.22,0,0,1-.43,3.47L203,172.39Z"/><path class="cls-10" d="M210.46,172.39l8.64-36.76h48.07c9.23,0,13.8,3.58,13.8,9.55a14.35,14.35,0,0,1-.43,3.37l-2.62,11.13c-1.81,7.82-8.42,12.71-19.39,12.71Zm58.31-22.1a14.57,14.57,0,0,0,.51-3.53c0-2.93-1.89-3.31-6.17-3.31H228.69l-4.94,21.07h32.68c5.95,0,9.36-1.63,10.31-5.54Z"/><path class="cls-10" d="M296.59,172.39c-8.64,0-12.71-2.77-12.71-8.36a16.55,16.55,0,0,1,.44-3.58l3.05-12.88c1.89-8,7.55-11.94,17.86-11.94h34.35c8.64,0,12.71,2.77,12.71,8.36a16.55,16.55,0,0,1-.44,3.58l-3.05,12.88c-1.89,8-7.55,11.94-17.86,11.94Zm43.64-23.95a9.12,9.12,0,0,0,.29-2.22c0-2.56-1.81-2.77-5.23-2.77h-29.4c-4.22,0-6.47,1.63-7.27,5L296,159.58a10.5,10.5,0,0,0-.36,2.28c0,2.55,1.89,2.66,5.3,2.66h29.41c4.21,0,6.46-1.69,7.26-4.94Z"/></g></g></svg>